<svg width="800" height="800" viewBox="0 0 800 800" fill="none" xmlns="http://www.w3.org/2000/svg">
<rect width="800" height="800" fill="white"/>
<path d="M662.395 157.096C661.844 153.096 658.34 150.882 655.444 150.638C652.553 150.397 591.381 145.863 591.381 145.863C591.381 145.863 548.896 103.685 544.233 99.0164C539.567 94.3507 530.455 95.7699 526.918 96.811C526.397 96.9644 517.636 99.6685 503.142 104.153C488.951 63.3151 463.904 25.7863 419.841 25.7863C418.625 25.7863 417.373 25.8356 416.121 25.9069C403.589 9.33425 388.066 2.13425 374.658 2.13425C272.014 2.13425 222.975 130.449 207.6 195.655C167.715 208.014 139.381 216.8 135.762 217.937C113.499 224.921 112.795 225.622 109.871 246.6C107.671 262.482 49.4192 712.973 49.4192 712.973L503.332 798.019L749.277 744.814C749.277 744.814 662.937 161.096 662.395 157.096ZM478.055 111.912L439.647 123.8C439.66 121.093 439.674 118.43 439.674 115.518C439.674 90.137 436.151 69.7014 430.499 53.5014C453.203 56.3507 468.323 82.1836 478.055 111.912ZM402.334 58.5342C408.647 74.3507 412.751 97.0493 412.751 127.679C412.751 129.247 412.737 130.679 412.723 132.129C387.745 139.866 360.603 148.266 333.4 156.693C348.674 97.7452 377.304 69.274 402.334 58.5342ZM371.838 29.6658C376.268 29.6658 380.732 31.1699 385.003 34.1096C352.107 49.589 316.847 88.5754 301.956 166.43L239.255 185.849C256.696 126.466 298.112 29.6658 371.838 29.6658Z" fill="#95BF46"/>
<path d="M655.444 150.638C652.553 150.397 591.381 145.863 591.381 145.863C591.381 145.863 548.896 103.685 544.233 99.0164C542.488 97.2795 540.134 96.3891 537.674 96.0055L503.353 798.014L749.277 744.814C749.277 744.814 662.937 161.096 662.395 157.096C661.844 153.096 658.34 150.882 655.444 150.638Z" fill="#5E8E3E"/>
<path d="M419.841 286.534L389.515 376.742C389.515 376.742 362.945 362.562 330.375 362.562C282.627 362.562 280.225 392.526 280.225 400.077C280.225 441.277 387.622 457.063 387.622 553.567C387.622 629.493 339.466 678.384 274.534 678.384C196.616 678.384 156.77 629.89 156.77 629.89L177.633 560.959C177.633 560.959 218.592 596.123 253.153 596.123C275.737 596.123 284.923 578.342 284.923 565.351C284.923 511.608 196.814 509.211 196.814 420.901C196.814 346.575 250.162 274.649 357.849 274.649C399.342 274.649 419.841 286.534 419.841 286.534Z" fill="white"/>
</svg>
