<svg xmlns:xlink="http://www.w3.org/1999/xlink" viewBox="0 0 1269.98 761.98" style="shape-rendering:geometricPrecision; text-rendering:geometricPrecision; image-rendering:optimizeQuality; fill-rule:evenodd; clip-rule:evenodd" version="1.1" height="7.6198mm" width="12.6998mm" xml:space="preserve" xmlns="http://www.w3.org/2000/svg">
 <defs>
  <style type="text/css">
   
    .fil2 {fill:#E51A4B;fill-rule:nonzero}
    .fil1 {fill:#96B82D;fill-rule:nonzero}
    .fil0 {fill:#FEFEFE;fill-opacity:0.901961}
   
  </style>
 </defs>
 <g id="Layer_x0020_1">
  <metadata id="CorelCorpID_0Corel-Layer"></metadata>
  <g id="_2647498813856">
   <path d="M987.97 567.31l-5.88 0c0.78,5.24 1.17,10.54 1.17,15.89 0,6.38 -0.77,13.41 -2.32,21.09 -1.49,7.39 -3.58,14.25 -6.26,20.55 -2.64,6.18 -5.91,12.15 -9.74,17.87 -4.24,6.31 -8.59,11.69 -13,16.11 -9.57,9.56 -20.9,17.15 -33.98,22.73 -6.99,2.99 -13.86,5.15 -20.6,6.5l-3.2 0.55c-6,1.02 -12.01,1.53 -18.02,1.53 -6.99,0 -13.99,-0.69 -20.99,-2.08l-0.24 0c-6.73,-1.34 -13.6,-3.51 -20.6,-6.5 -6.96,-2.97 -13.43,-6.51 -19.41,-10.62 -10.77,10.45 -25.45,16.88 -41.64,16.88l-21.5 0c-7.37,0 -14.43,-1.34 -20.95,-3.78 -6.53,2.44 -13.59,3.78 -20.97,3.78l-21.49 0c-10.77,0 -20.86,-2.84 -29.59,-7.82 -8.72,4.98 -18.82,7.82 -29.58,7.82l-21.5 0c-1.55,0 -3.09,-0.06 -4.61,-0.18l-0.33 0.07c-7.53,1.62 -15.09,2.43 -22.65,2.43 -6.44,0 -13.5,-0.77 -21.16,-2.31 -7.84,-1.59 -14.88,-3.76 -21.09,-6.5 -4.98,-2.19 -9.73,-4.73 -14.24,-7.63 -0.99,1.64 -2.01,3.25 -3.09,4.85 -3.91,5.83 -8.26,11.11 -12.99,15.87l-0.13 0.11 0.13 0.13c-4.21,4.2 -9.52,8.47 -15.88,12.79 -5.77,3.91 -11.67,7.19 -17.64,9.8 -6.59,2.88 -13.54,5.07 -20.83,6.56l-3 0.54c-6.6,1.2 -12.76,1.81 -18.46,1.81 -5.3,0 -11.1,-0.52 -17.41,-1.57 -5.95,-0.97 -11.77,-2.46 -17.44,-4.45 -10.9,-3.81 -20.85,-9.17 -29.85,-16.05 -11.18,-8.53 -18.51,-20.25 -21.67,-32.92 -10.75,10.32 -25.34,16.65 -41.4,16.65l-21.5 0c-16.56,0 -31.56,-6.73 -42.39,-17.61 -6.27,4.42 -13.08,8.2 -20.46,11.35 -6.99,2.99 -13.87,5.16 -20.6,6.5l-3.22 0.55c-6,1.02 -12.01,1.53 -18,1.53 -7,0 -14,-0.69 -20.99,-2.08l-0.24 0c-6.74,-1.35 -13.61,-3.51 -20.59,-6.5 -6.19,-2.64 -12.16,-5.89 -17.88,-9.74 -6.31,-4.24 -11.69,-8.58 -16.1,-12.99 -4.42,-4.42 -8.76,-9.8 -13.01,-16.11 -3.83,-5.72 -7.09,-11.69 -9.73,-17.87 -2.69,-6.3 -4.78,-13.16 -6.26,-20.55 -1.55,-7.68 -2.32,-14.71 -2.32,-21.09 0,-7.18 0.7,-14.26 2.09,-21.23l0.85 -3.65c1.37,-5.7 3.25,-11.35 5.64,-16.94 2.64,-6.19 5.9,-12.16 9.73,-17.87 3.44,-5.11 6.93,-9.59 10.47,-13.47 -6.37,-6.3 -11.8,-13.41 -16.3,-21.33 -6.65,-11.67 -10.95,-24.75 -12.86,-39.18l-0.06 -0.49 -0.18 0.02 -29.95 -245.29c-0.24,-1.98 -0.37,-3.95 -0.42,-5.9 -0.94,-12.14 0.05,-23.77 2.94,-34.87 3.81,-14.58 10.6,-27.57 20.32,-38.96 1.36,-1.59 2.79,-3.09 4.27,-4.51 8.16,-8.5 17.5,-15.38 27.97,-20.61l0.09 -0.05 -0.09 -0.19c11.4,-5.69 24.02,-9.31 37.82,-10.84l2.87 -0.24 79.87 -10.1 3.98 -0.37 -0.01 -0.1 8.57 -0.32c7.02,-0.23 7.08,-0.35 8.58,-0.35 37.13,0 69.8,11.42 97.96,34.25 14.95,12.11 26.78,26.34 35.45,42.67 6.67,12.54 11.45,26.15 14.34,40.81 5.13,-4.54 10.53,-8.74 16.17,-12.59 16.68,-11.37 35.16,-19.45 55.44,-24.23 1.55,-0.36 3.1,-0.66 4.64,-0.9 4.93,-1.08 9.13,-1.84 12.58,-2.26 6.13,-0.75 12.1,-1.12 17.92,-1.12 6.32,0 12.74,0.45 19.22,1.36 10,-6.82 21.23,-11.8 33.67,-14.9 2.39,-0.6 4.79,-1.04 7.18,-1.34 2.64,-0.42 5.4,-0.77 8.27,-1.06 5.31,-0.52 9.43,-0.79 12.25,-0.79 27.25,0 50.09,10.13 68.5,30.41 4,4.41 7.66,9.23 10.98,14.48l14.32 -62.26 -0.1 -0.02c2.63,-11.13 6.69,-21.46 12.14,-30.97 5.67,-9.89 13,-18.82 21.96,-26.74 9.13,-8.08 19.33,-14.27 30.56,-18.58 11.71,-4.49 23.5,-6.74 35.36,-6.74 3.35,0 7.66,0.35 12.89,1.04l3.17 0.5c2.42,0.4 4.81,0.89 7.15,1.45 11.61,2.62 22.35,7.05 32.23,13.24 10.6,6.64 19.47,14.69 26.59,24.13 6.94,9.19 12.18,19.25 15.72,30.13 3.49,10.75 5.23,21.72 5.23,32.94 0,6.64 -0.66,13.29 -1.98,19.95 17.63,5.23 33.62,12.87 47.95,22.92 3.77,2.63 7.4,5.42 10.9,8.36l3.12 -1.99c9.41,-5.77 19.52,-9.81 30.26,-12.11l1.18 -0.23c3.58,-0.77 6.86,-1.34 9.81,-1.69 4.37,-0.53 8.51,-0.8 12.4,-0.8 17.91,0 34.59,4.38 50.03,13.12 2.84,1.61 5.59,3.36 8.26,5.24 5.16,-9.19 11.51,-17.41 19.03,-24.65 9.46,-9.1 20.14,-16.06 31.99,-20.81 12.02,-4.83 24.47,-7.25 37.33,-7.25 20.65,0 39.62,5.55 56.92,16.63l0.43 0.29 0.03 -0.05c10.22,6.68 18.89,14.99 26.01,24.88 7.13,9.9 12.14,20.8 15,32.68l0.09 -0.02c1.76,7.04 2.82,14.51 3.17,22.36 0.35,8.04 -0.11,15.67 -1.36,22.87l-0.66 3.3 -43.37 277.18c-3.37,21.64 -10.95,39.91 -22.73,54.78 -14.02,17.73 -32.14,29.19 -54.32,34.37l-1.81 0.39c-3.21,0.73 -6.57,1.35 -10.06,1.83 -5.51,0.8 -10.32,1.17 -14.45,1.17 -10.71,0 -21.33,-1.69 -31.83,-5.07 -10.83,-3.48 -20.66,-8.56 -29.48,-15.23 -9.22,-6.97 -16.91,-15.2 -23.02,-24.72 -3.93,-6.11 -7.1,-12.67 -9.5,-19.66z" class="fil0"></path>
   <path d="M177.77 557.4c-7.17,0 -13.26,2.51 -18.27,7.52 -5.02,5.02 -7.53,11.11 -7.53,18.28 0,7.04 2.51,13.07 7.53,18.09 2.39,2.51 5.16,4.39 8.33,5.64 3.16,1.26 6.48,1.88 9.94,1.88 3.46,0 6.75,-0.62 9.85,-1.88 3.11,-1.25 5.91,-3.13 8.42,-5.64 5.02,-5.02 7.53,-11.05 7.53,-18.09 0,-7.17 -2.51,-13.26 -7.53,-18.28 -5.25,-5.01 -11.34,-7.52 -18.27,-7.52zm0 -21.5c6.57,0 12.72,1.23 18.45,3.67 5.73,2.45 10.75,5.83 15.05,10.13 4.3,4.3 7.67,9.31 10.12,15.04 2.45,5.74 3.67,11.89 3.67,18.46 0,6.45 -1.22,12.53 -3.67,18.27 -2.45,5.73 -5.82,10.75 -10.12,15.05 -4.3,4.29 -9.32,7.67 -15.05,10.12 -5.73,2.45 -11.88,3.67 -18.45,3.67 -6.57,0 -12.72,-1.22 -18.45,-3.67 -5.73,-2.45 -10.75,-5.83 -15.05,-10.12 -4.3,-4.3 -7.67,-9.32 -10.12,-15.05 -2.45,-5.74 -3.67,-11.82 -3.67,-18.27 0,-6.57 1.22,-12.72 3.67,-18.46 2.45,-5.73 5.82,-10.74 10.12,-15.04 4.3,-4.3 9.32,-7.68 15.05,-10.13 5.73,-2.44 11.88,-3.67 18.45,-3.67zm126.17 9.32c3.34,-2.75 7.13,-5.02 11.37,-6.81 4.24,-1.79 9.05,-2.69 14.42,-2.69l0 21.5c-7.16,0 -13.25,2.51 -18.27,7.52 -5.02,5.26 -7.52,11.35 -7.52,18.28l0 44.96 -21.5 0 0 -44.96 0 -44.79 21.5 0 0 6.99zm175.07 73.8c0,6.45 -1.23,12.54 -3.67,18.28 -2.45,5.73 -5.83,10.75 -10.13,15.04 -4.3,4.3 -9.31,7.71 -15.04,10.22 -5.74,2.5 -11.89,3.76 -18.46,3.76 -5.37,0 -10.45,-0.84 -15.22,-2.51 -4.78,-1.67 -9.2,-4.06 -13.26,-7.17l15.59 -15.4c3.82,2.39 8.12,3.58 12.89,3.58 7.29,0 13.38,-2.57 18.28,-7.7 5.01,-5.02 7.52,-11.05 7.52,-18.1l0 -36c0,-6.93 -2.51,-13.02 -7.52,-18.28 -5.02,-5.01 -11.11,-7.52 -18.28,-7.52 -6.92,0 -13.01,2.51 -18.27,7.52 -5.01,5.26 -7.52,11.35 -7.52,18.28 0,7.16 2.51,13.25 7.52,18.27 5.26,5.01 11.35,7.52 18.27,7.52 3.59,0 6.81,-0.59 9.68,-1.79l8.06 20.07c-5.38,2.15 -11.17,3.22 -17.38,3.22l-0.36 0c-6.44,0 -12.54,-1.22 -18.27,-3.67 -5.73,-2.45 -10.75,-5.83 -15.05,-10.12 -4.3,-4.3 -7.7,-9.32 -10.21,-15.05 -2.5,-5.74 -3.76,-11.89 -3.76,-18.45 0,-6.57 1.08,-12.72 3.22,-18.45 2.16,-5.74 5.17,-10.75 9.05,-15.05 3.88,-4.3 8.54,-7.68 13.98,-10.12 5.43,-2.45 11.37,-3.68 17.82,-3.68 6.21,0 11.7,0.93 16.48,2.78 4.78,1.85 8.96,4.15 12.54,6.9l0 -6.99 21.5 0 0 80.61zm150.17 -80.79l0 89.75 -21.5 0 0 -44.78c0,-7.17 -2.51,-13.26 -7.52,-18.28 -5.02,-5.01 -11.11,-7.52 -18.27,-7.52 -3.47,0 -6.78,0.66 -9.95,1.97 -3.16,1.31 -5.94,3.17 -8.33,5.55 -5.01,5.02 -7.52,11.11 -7.52,18.28 0,7.04 2.51,13.07 7.52,18.09 2.39,2.51 5.17,4.39 8.33,5.64 3.17,1.26 6.48,1.88 9.95,1.88 3.58,0 6.8,-0.59 9.67,-1.79l7.7 19.17c-5.49,2.75 -11.88,4.12 -19.17,4.12 -6.57,0 -12.63,-1.22 -18.18,-3.67 -5.55,-2.45 -10.36,-5.83 -14.42,-10.12 -4.06,-4.3 -7.22,-9.32 -9.49,-15.05 -2.27,-5.74 -3.41,-11.82 -3.41,-18.27 0,-6.57 1.14,-12.72 3.41,-18.46 2.27,-5.73 5.43,-10.74 9.49,-15.04 4.06,-4.3 8.87,-7.68 14.42,-10.13 5.55,-2.44 11.61,-3.67 18.18,-3.67 5.86,0 11.05,0.9 15.59,2.69 4.54,1.79 8.54,4.06 12,6.81l0 -7.17 21.5 0zm105.21 -2.33c5.85,0 11.16,1.11 15.94,3.32 4.78,2.21 8.87,5.25 12.27,9.13 3.4,3.88 6.03,8.39 7.88,13.53 1.85,5.13 2.78,10.63 2.78,16.48l0 49.62 -21.5 0 0 -49.62c0,-5.97 -2.09,-10.93 -6.27,-14.87 -4.06,-4.06 -8.95,-6.09 -14.69,-6.09 -5.85,0 -10.8,2.03 -14.86,6.09 -4.07,4.06 -6.1,9.02 -6.1,14.87l0 49.62 -21.49 0 0 -89.57 21.49 0 0 6.81c3.23,-2.75 6.87,-4.99 10.93,-6.72 4.06,-1.73 8.6,-2.6 13.62,-2.6zm141.75 21.5c-7.17,0 -13.26,2.51 -18.28,7.52 -5.01,5.02 -7.52,11.11 -7.52,18.28 0,7.04 2.51,13.07 7.52,18.09 2.39,2.51 5.17,4.39 8.33,5.64 3.17,1.26 6.48,1.88 9.95,1.88 3.46,0 6.74,-0.62 9.85,-1.88 3.1,-1.25 5.91,-3.13 8.42,-5.64 5.01,-5.02 7.52,-11.05 7.52,-18.09 0,-7.17 -2.51,-13.26 -7.52,-18.28 -5.26,-5.01 -11.35,-7.52 -18.27,-7.52zm0 -21.5c6.56,0 12.71,1.23 18.45,3.67 5.73,2.45 10.75,5.83 15.05,10.13 4.29,4.3 7.67,9.31 10.12,15.04 2.45,5.74 3.67,11.89 3.67,18.46 0,6.45 -1.22,12.53 -3.67,18.27 -2.45,5.73 -5.83,10.75 -10.12,15.05 -4.3,4.29 -9.32,7.67 -15.05,10.12 -5.74,2.45 -11.89,3.67 -18.45,3.67 -6.57,0 -12.72,-1.22 -18.45,-3.67 -5.74,-2.45 -10.75,-5.83 -15.05,-10.12 -4.3,-4.3 -7.68,-9.32 -10.12,-15.05 -2.45,-5.74 -3.68,-11.82 -3.68,-18.27 0,-6.57 1.23,-12.72 3.68,-18.46 2.44,-5.73 5.82,-10.74 10.12,-15.04 4.3,-4.3 9.31,-7.68 15.05,-10.13 5.73,-2.44 11.88,-3.67 18.45,-3.67z" class="fil1"></path>
   <path d="M617.73 452.38c-3.82,0.88 -7.63,1.33 -11.45,1.33 -9.98,0 -18.64,-3.82 -25.98,-11.46 -12.63,17.32 -29.36,28.33 -50.21,33.03 -8.51,2.06 -17.03,3.09 -25.54,3.09 -27.6,0 -52.19,-9.77 -73.77,-29.29 -21.57,-19.52 -36.18,-45.29 -43.81,-77.29 -2.64,-11.74 -3.97,-23.49 -3.97,-35.23 0,-29.65 7.93,-55.71 23.78,-78.17 15.85,-22.46 36.85,-36.77 62.98,-42.94 7.34,-1.76 14.53,-2.64 21.58,-2.64 13.79,0 26.57,3.08 38.31,9.25 5.29,-12.92 14.98,-21.14 29.07,-24.66 4.69,-0.88 9.1,-1.32 13.21,-1.32 19.37,0 32.44,14.38 39.19,43.16l35.23 152.81c2.06,9.39 3.09,17.17 3.09,23.34 0,19.96 -10.57,32.3 -31.71,36.99zm-149.29 -117.58c0,5.87 0.58,11.89 1.76,18.05 2.93,12.63 8.22,23.05 15.86,31.27 7.63,8.22 16.43,12.33 26.41,12.33 11.46,0 20.27,-4.55 26.43,-13.65 5.87,-7.92 8.81,-17.91 8.81,-29.95 0,-5.58 -0.73,-11.44 -2.21,-17.61 -2.93,-12.92 -8.21,-23.56 -15.85,-31.92 -7.63,-8.38 -16.29,-12.56 -25.98,-12.56 -11.45,0 -20.19,4.33 -26.21,12.99 -6.01,8.66 -9.02,19.01 -9.02,31.05z" class="fil2"></path>
   <path d="M305.11 281.07c14.97,0 28.99,6.6 42.05,19.82 13.06,13.21 20.78,29.37 23.13,48.44 0.58,5.87 0.87,11.6 0.87,17.17 0,28.78 -9.09,52.12 -27.31,70.03 -18.2,17.91 -42.56,28.77 -73.1,32.58l-89.84 11.01c-13.2,1.48 -24.65,-1.24 -34.34,-8.14 -9.69,-6.9 -15.42,-16.96 -17.18,-30.16l-29.94 -245.3c-1.76,-13.51 1.17,-24.74 8.81,-33.69 7.63,-8.96 18.05,-14.17 31.27,-15.63l83.67 -10.58c4.69,-0.29 9.25,-0.43 13.64,-0.43 23.2,0 43.31,6.9 60.34,20.7 17.03,13.79 27,32.58 29.95,56.36 0.58,4.4 0.87,8.81 0.87,13.22 0,22.01 -7.62,40.21 -22.89,54.6zm-62.7 -8.64c0.13,-0.45 0.3,-0.86 0.5,-1.24 0.71,-1.32 1.86,-2.32 3.16,-3.06 4.86,-2.72 11.3,-16.62 12.68,-19.7 0.2,-0.44 0.4,-0.86 0.62,-1.3 6.18,-12.63 6.57,-42.76 6.57,-42.76 -0.26,-13.84 -5.69,-13.44 -5.69,-13.44 -16.64,-1.71 -27.25,17.82 -27.25,17.82 -23.99,30.86 -13.76,59.9 -13.76,59.9 3.01,7.24 -2.42,11.46 -2.42,11.46 0,0 -1.09,1.08 -2.83,0.39 0,0 -6.38,-2.58 -5.45,-10.37 0,0 1.95,-30.73 -29.53,-53.9 0,0 -15.52,-15.91 -31.08,-9.74 0,0 -5.32,1.1 -1.82,14.49 0,0 8.59,28.89 17.98,39.37 0.31,0.35 0.62,0.71 0.94,1.06 2.16,2.59 12.14,14.21 17.55,15.52 1.46,0.37 2.85,1.01 3.88,2.09 0.29,0.3 0.57,0.66 0.83,1.04 1.06,1.67 2.19,3.32 3.48,4.83 4.26,4.97 11.78,15.74 7.54,25.86 0,0 -12.46,22.08 8.99,24.97l-1.57 0.63c-6.61,2.64 -12.25,7.19 -16.22,13.1 -10.3,15.35 -23.79,45.41 12.9,62.06 -5.04,2 -7.4,6.49 -7.4,6.49 21.82,18.93 24.17,-3.34 24.17,-3.34l0 0c0.11,-0.31 1.72,-4.39 4.53,-7.79 1.22,2.57 3.95,4.19 6.88,3.79 3.49,-0.48 5.93,-3.67 5.65,-7.19 2.29,1.33 4.76,3.78 7.4,7.8l-0.01 0c0,0 8.31,20.79 24.15,-3.35 0,0 -2.19,-2.32 -5.77,-3.55 33.14,-26.48 11.44,-52.39 -2.88,-64.57 -5.43,-4.61 -12.1,-7.46 -19.17,-8.19l-1.68 -0.18c19.85,-8.63 1.86,-26.47 1.86,-26.47 -6.84,-8.59 -2.51,-21 0.23,-26.94 0.82,-1.81 1.46,-3.69 2.04,-5.59z" class="fil2"></path>
   <path d="M1170.32 248.92l-44.04 281.41c-3.53,22.61 -14.1,35.97 -31.71,40.08 -4.41,1.17 -8.66,1.76 -12.77,1.76 -9.69,0 -18.13,-2.72 -25.33,-8.15 -7.19,-5.43 -11.67,-12.4 -13.43,-20.92 -0.88,-3.22 -1.32,-7.33 -1.32,-12.33 0,-11.74 1.91,-28.33 5.73,-49.76 2.05,-9.98 3.96,-19.96 5.72,-29.95l-104.81 -151.05c-6.16,-8.81 -9.25,-17.62 -9.25,-26.43 0,-9.39 3.52,-17.9 10.57,-25.53 6.17,-7.05 13.36,-11.46 21.58,-13.22 3.82,-0.88 7.48,-1.32 11.01,-1.32 15.27,0 27.45,6.9 36.55,20.7l53.29 81.91 14.53 -97.76c1.76,-11.16 6.53,-20.48 14.32,-27.97 7.77,-7.49 17.1,-11.23 27.96,-11.23 9.1,0 17.32,2.35 24.66,7.05 8.51,5.57 13.8,12.92 15.85,22.02 1.77,7.05 2.06,13.94 0.89,20.69z" class="fil2"></path>
   <path d="M781.07 474.4c-21.14,-4.99 -37.58,-15.56 -49.33,-31.71 -7.34,6.75 -16.14,10.13 -26.43,10.13 -3.51,0 -7.18,-0.44 -11,-1.32 -10.28,-2.35 -18.35,-7.34 -24.23,-14.97 -5.86,-7.64 -8.8,-16.74 -8.8,-27.31 0,-4.11 0.59,-8.22 1.76,-12.33l60.77 -264.23c2.64,-11.15 7.79,-20.11 15.42,-26.86 7.63,-6.75 16.44,-10.13 26.42,-10.13 3.52,0 6.9,0.44 10.13,1.32 10.28,2.35 18.35,7.41 24.22,15.19 5.88,7.79 8.81,16.81 8.81,27.09 0,4.11 -0.59,8.22 -1.76,12.33l-14.54 63.85c16.44,-4.4 33.33,-4.69 50.65,-0.87 28.18,6.75 49.76,21.86 64.73,45.35 12.92,20.55 19.38,45.22 19.38,73.99 0,13.21 -1.47,26.28 -4.4,39.19 -6.75,28.78 -20.55,53 -41.4,72.67 -22.31,20.84 -47.56,31.27 -75.75,31.27 -8.22,0 -16.43,-0.89 -24.65,-2.65zm33.9 -184.08c-2.93,-0.59 -5.72,-0.88 -8.36,-0.88 -9.69,0 -18.21,3.89 -25.54,11.67 -7.35,7.78 -12.48,18.13 -15.42,31.05 -1.47,6.45 -2.2,12.77 -2.2,18.93 0,12.04 2.64,22.02 7.93,29.95 6.46,9.39 15.26,14.09 26.42,14.09 13.21,0 24.22,-7.04 33.02,-21.13 7.64,-12.34 11.45,-25.7 11.45,-40.08 0,-24.66 -9.09,-39.2 -27.3,-43.6z" class="fil2"></path>
  </g>
 </g>
</svg>
